<svg width="512" height="490" viewBox="0 0 512 490" fill="none" xmlns="http://www.w3.org/2000/svg">
<path d="M441.144 94.7044C490.785 108.445 515.753 157.384 511.543 206.487C507.61 243.384 484.845 280.378 454.95 304.024C405.52 344.38 343.314 367.422 299.27 414.632C278.675 435.585 265.669 461.907 256.09 489.436L254.246 484.28C245.108 458.513 231.743 434.54 212.911 414.615C168.867 367.405 106.661 344.364 57.2313 304.008C27.3355 280.362 4.57101 243.351 0.638218 206.471C-4.58375 157.564 22.5379 107.384 71.0369 94.6881C58.4389 124.845 38.3996 155.263 43.8827 189.532C48.8435 211.987 63.2529 232.646 82.4273 245.44C130.078 277.212 185.251 297.496 227.761 336.645C241.208 376.234 245.32 418.205 255.519 458.659L256.107 460.014L256.694 458.659C266.893 418.222 271.006 376.234 284.452 336.645C326.946 297.496 382.119 277.212 429.786 245.44C448.961 232.646 463.354 211.987 468.331 189.532C473.357 155.589 454.362 124.502 441.177 94.6881L441.144 94.7044ZM254.116 77.0313L256.09 74.9425C278.137 98.2293 266.747 86.3166 290.278 110.648C275.705 130.018 274.857 153.484 276.391 176.787C295.761 180.214 315.115 183.298 334.306 187.231C316.91 206.504 290.947 207.532 266.698 210.795C273.551 220.048 283.065 226.396 292.579 232.467C287.439 261.089 281.956 289.614 276.048 318.058C351.359 271.37 422.051 202.049 438.158 111.48C447.623 63.9438 415.116 12.4584 367.172 2.24293C367.172 2.24293 361.378 0.301007 341.339 0.00727144C304.426 -0.531244 275.428 28.9239 256.09 60.9901C236.769 28.9402 207.755 -0.531244 170.842 0.00727144C150.786 0.301007 145.009 2.24293 145.009 2.24293C97.0815 12.4584 64.5584 63.9438 74.0232 111.48C90.1297 202.049 160.822 271.354 236.133 318.058C230.225 289.614 224.742 261.089 219.602 232.467C229.116 226.38 238.629 220.048 245.483 210.795C221.234 207.532 195.271 206.52 177.875 187.231C197.066 183.282 216.436 180.198 235.79 176.787C237.34 153.484 236.475 130.002 221.903 110.648C232.689 99.4858 243.509 88.3728 254.116 77.0313Z" fill="#444444"/>
</svg>
